# xmcd
#
# Track frame offsets:
#	225
#	11284
#	22888
#	35476
#	46699
#	58481
#	70007
#	81156
#	92215
#	104528
#	118667
#	127602
#	141327
#	154208
#	171023
#	186215
#
# Disc length: 2624
#
# Revision: 1
# Processed by: cddbd v1.5.1PL0 Copyright (c) Steve Scherf et al.
# Submitted via: EasyCDDAExtractor 4.6.0.1
# Normalized: r0:DSETVAR1,TDELIM( - )
#
DISCID=cf0a3d10
DTITLE=Various Artist - King of the Road
DYEAR=1900
DGENRE=Country
TTITLE0=Roger Miller - King of the Road
TTITLE1=Patsy Cline - Walkin' after Midnight
TTITLE2=Jerry Wallace - In the Misty Moonlight
TTITLE3=Hank Locklin - Let me be the one
TTITLE4=Troy Shondell - This Time
TTITLE5=The Kendalls - Heaven's just a sin away
TTITLE6=Conway Twitty - Hello darlin'
TTITLE7=Bill Anderson - I get the fever
TTITLE8=Merle Haggard - Everybody's had the blues
TTITLE9=Lee Greenwood - Dixie Road
TTITLE10=Sandy Posey - Born a woman
TTITLE11=Mel McDaniel - Baby's got her blue jeans on
TTITLE12=The Jordanairs - Love lifted me
TTITLE13=Mickey Gilley - C. C. Raider
TTITLE14=Ed Bruce - Mama's don't let your baby's grow up to be cowboys
TTITLE15=Eddy Raven - I got Mexico
EXTD=
EXTT0=
EXTT1=
EXTT2=
EXTT3=
EXTT4=
EXTT5=
EXTT6=
EXTT7=
EXTT8=
EXTT9=
EXTT10=
EXTT11=
EXTT12=
EXTT13=
EXTT14=
EXTT15=
PLAYORDER=
